<svg width="151" height="23" viewBox="0 0 151 23" fill="none" xmlns="http://www.w3.org/2000/svg">
<path d="M51.7327 19.5312C55.8517 19.5312 59.5043 16.7593 59.5043 12.0445C59.5043 7.32979 55.8517 4.55793 51.7327 4.55793C47.6138 4.55793 43.9612 7.32979 43.9612 12.0445C43.9612 16.7593 47.6138 19.5312 51.7327 19.5312ZM25.1281 19.2203H28.1331L21.2164 4.84289H18.3409L11.9423 19.2203H14.6105L16.0094 15.9821H23.6515L25.1281 19.2203ZM99.7351 4.84289H88.829V19.2203H99.9683V16.9147H91.3936V13.1844H98.6989V10.8788H91.3936V7.14846H99.761V4.84289H99.7351ZM61.4731 17.7955C62.0689 18.2618 63.8046 19.5052 66.8873 19.5052C69.9959 19.5052 72.5087 17.8214 72.5087 15.205C72.5087 9.73898 64.5817 11.4746 64.5817 8.49553C64.5817 7.66656 65.2812 6.96712 67.0945 6.96712C69.2965 6.96712 70.7213 7.95152 71.2653 8.39191L72.3274 6.26768C71.6798 5.64595 69.6592 4.55793 67.0945 4.55793C63.2606 4.55793 61.6803 6.70807 61.6803 8.8323C61.6803 13.8061 69.6074 12.3813 69.6074 15.3345C69.6074 16.578 68.3639 17.122 66.9391 17.122C64.789 17.122 63.0792 16.1635 62.328 15.6195L61.4731 17.7955ZM36.4487 7.12255C38.5988 7.12255 39.8163 8.28828 40.4899 8.91001L42.2773 7.14846C41.6815 6.50082 39.9718 4.55793 36.3968 4.55793C32.2779 4.55793 28.6253 7.32979 28.6253 12.0445C28.6253 16.7593 32.252 19.5312 36.3709 19.5312C39.5573 19.5312 41.7074 17.8214 42.4069 17.1997L40.9821 15.1791C39.8422 16.1376 38.0548 16.9665 36.4228 16.9665C33.5732 16.9665 31.423 14.8164 31.423 12.0445C31.3971 9.27268 33.5473 7.12255 36.4487 7.12255ZM51.7327 16.9665C48.8832 16.9665 46.733 14.8164 46.733 12.0445C46.733 9.27268 48.8832 7.12255 51.7327 7.12255C54.5823 7.12255 56.7324 9.27268 56.7324 12.0445C56.7324 14.8164 54.5823 16.9665 51.7327 16.9665ZM78.9591 7.14846V19.2203H81.5238V7.14846H86.5494V4.84289H74.063V7.14846H78.9591ZM2.56462 4.84289H0V19.2203H10.2067V16.9147H2.56462V4.84289ZM19.688 7.3557L22.6153 13.7543H16.9679L19.688 7.3557Z" fill="white"/>
<path d="M149.888 16.1897C149.577 15.9824 149.318 15.9824 149.033 15.8788C148.645 15.7752 148.515 15.283 148.386 15.2312C148.101 15.1276 147.842 15.5679 147.66 15.4902C147.479 15.4384 147.427 14.8685 147.272 14.8167C146.987 14.7131 146.702 15.1535 146.521 15.1017C146.339 15.0498 146.262 14.4799 146.106 14.4281C145.821 14.3245 145.51 14.7908 145.355 14.7131C145.174 14.6613 145.122 14.0654 144.992 14.0136C144.681 13.91 144.396 14.3763 144.137 14.3245C143.956 14.2986 143.593 14.2209 143.075 13.91C142.946 13.8064 142.635 13.5732 142.609 13.5732C142.557 13.5473 142.428 13.5214 142.454 13.7805C142.531 14.3763 143.567 14.8167 144.759 15.1535C145.951 15.4902 147.142 15.827 147.868 16.1638C148.308 16.371 148.515 16.6042 148.334 16.8632C148.204 17.0445 147.894 17.0705 147.583 16.915C147.22 16.7337 147.194 16.4746 146.961 16.4228C146.676 16.371 146.339 16.8891 146.132 16.8373C145.847 16.7596 145.821 16.1638 145.562 16.112C145.225 16.0342 144.863 16.5264 144.655 16.4746C144.448 16.4228 144.371 15.8011 144.163 15.7493C143.826 15.6716 143.464 16.1897 143.257 16.1379C143.049 16.0861 142.92 15.4643 142.738 15.3866C142.402 15.2571 141.935 15.7752 141.469 15.5161C139.941 14.4799 140.226 13.9359 139.06 13.5992C138.464 13.4178 137.687 13.6251 137.247 13.6769C136.21 13.7805 136.236 12.8738 136.236 12.8738C136.547 12.9515 136.962 13.1329 137.739 12.8479C138.568 12.537 139.06 12.4852 140.148 12.8479C141.081 13.1588 141.625 12.8738 141.935 12.7961C142.091 12.7443 142.22 12.6666 142.505 12.8479C142.816 13.0292 143.101 13.2365 143.231 13.1847C143.464 13.081 143.386 12.4593 143.775 12.3298C143.956 12.278 144.448 12.7702 144.655 12.6666C144.863 12.5888 144.811 11.9412 145.199 11.8117C145.381 11.7599 145.873 12.2521 146.08 12.1485C146.288 12.0707 146.236 11.4231 146.624 11.2936C146.806 11.2418 147.298 11.734 147.505 11.6304C147.712 11.5526 147.66 10.905 148.049 10.7755C148.23 10.7237 148.723 11.2159 148.93 11.1122C149.137 11.0345 149.111 10.8791 149.292 10.4387C149.318 10.361 149.396 10.2574 149.474 10.2056C149.707 9.99832 150.07 9.58384 149.862 9.11755C149.681 8.70306 149.267 8.70306 148.412 8.8844C147.686 9.03983 143.127 10.0501 143.127 10.0501C142.428 8.72897 141.935 9.60975 140.873 9.48022C140.2 9.4025 139.112 8.72897 137.402 10.3092C136.469 10.0501 135.666 10.2833 135.071 10.6201C134.034 10.2056 132.091 9.19526 128.361 9.19526C127.299 9.19526 124.786 9.4025 120.797 10.4646C119.786 10.7237 118.828 10.6719 118.621 10.076C118.388 9.42841 119.217 8.78078 120.745 8.02953C124.579 6.19026 127.144 6.63064 132.299 3.88469C135.071 2.43399 135.252 0.698345 135.252 0.283861C135.252 -0.00109682 134.967 -0.104718 134.786 0.128429C133.853 1.42369 133.62 1.32007 133.335 1.03511C132.946 0.646533 132.687 1.26826 132.273 1.57912C131.962 1.81227 131.884 1.52731 131.651 1.37188C131.211 1.08692 130.848 1.91589 130.485 2.09723C130.045 2.30447 129.967 2.07132 129.838 1.91589C129.734 1.81227 129.553 1.81227 129.423 1.9418C128.542 2.77076 128.413 2.69305 128.154 2.40809C127.947 2.20085 127.843 2.04542 127.273 2.64124C126.936 2.978 126.392 3.36658 126.237 2.9521C126.081 2.53762 125.926 2.30447 125.123 3.02982C124.657 3.4702 124.32 3.49611 124.164 3.28887C124.009 3.08163 124.035 2.51171 123.284 3.10753C122.61 3.65154 122.273 3.9624 122.04 3.4443C121.833 2.9521 121.315 3.36658 120.952 3.72926C120.745 3.91059 120.434 4.37689 120.149 3.91059C119.89 3.4702 119.45 3.9365 118.932 4.50641C118.621 4.81728 118.413 4.68775 118.129 4.48051C117.792 4.22146 117.403 5.12814 116.911 5.64624C116.807 5.72396 116.678 5.80168 116.367 5.59443C115.978 5.33538 115.357 6.70836 115.175 7.04513C114.89 7.58914 114.554 6.8897 114.217 7.4078C113.44 8.57354 112.585 9.84289 112.352 12.0966C112.067 14.8167 113.077 17.0186 114.087 17.8217C114.087 17.8217 113.958 18.1326 113.828 18.4952C113.543 19.2724 113.414 20.2568 113.802 20.9562C114.165 21.6298 114.994 22.7437 115.305 21.6816C115.46 21.1635 115.59 21.1894 116.082 21.5521C116.833 22.0702 116.652 21.1117 116.807 20.8267C116.911 20.6195 117.04 20.5418 117.662 20.9562C118.025 21.1894 118.128 20.8785 118.232 20.4381C118.569 19.0911 117.921 18.7543 117.3 18.6248C116.833 18.5211 116.367 18.5989 116.367 18.5989C117.377 17.0705 117.507 16.2415 116.367 15.4643C116.522 15.3866 116.678 15.4384 116.807 15.4902C117.092 15.6198 117.325 15.827 117.455 16.0861C117.61 16.371 117.869 16.9668 117.351 18.0549C117.559 18.0549 118.413 18.1067 118.776 18.9615C119.268 19.117 122.455 19.376 123.854 19.1429C124.372 19.0652 124.579 18.5989 125.097 18.1326C125.641 17.6145 126.289 17.0705 126.859 17.4849C125.874 17.8735 125.201 18.6507 125.201 19.6092C125.201 20.3345 125.486 20.6195 126.004 21.0599C126.47 21.4484 126.625 22.0702 126.781 22.5365C126.988 23.1323 127.454 23.1582 127.558 22.5883C127.688 21.7852 127.947 21.9406 128.257 22.2774C128.646 22.6919 128.931 22.6401 128.931 22.0443C128.931 21.4743 129.112 21.1894 129.734 21.8629C129.993 22.122 130.304 22.122 130.304 21.5521C130.304 20.8526 130.615 20.9044 131.003 21.2153C131.133 21.3189 131.237 21.3966 131.314 21.3966C131.625 21.3707 131.832 20.7749 131.599 20.3086C131.47 20.0755 131.314 19.7128 129.708 19.376C129.19 19.2724 129.268 18.9097 129.268 18.9097C133.205 19.0911 136.521 18.5989 138.723 17.2777C141.417 17.9253 145.355 17.9771 146.65 17.9771C147.945 17.9512 148.93 17.8994 149.733 17.5108C150.432 17.0705 150.303 16.4487 149.888 16.1897ZM141.78 10.076C141.858 9.8688 142.013 9.73927 142.194 9.73927C142.505 9.73927 142.635 10.076 142.635 10.1538L141.91 10.3092C141.702 10.3869 141.702 10.2574 141.78 10.076ZM139.915 10.0242C140.407 10.0242 140.718 10.4128 140.77 10.5941C140.77 10.5941 140.018 10.7496 139.682 10.8273C139.474 10.8791 139.319 10.7755 139.293 10.6201C139.293 10.4128 139.5 10.0242 139.915 10.0242ZM119.087 5.4131C119.424 5.25767 119.786 5.12814 120.175 5.05042C120.253 5.05042 120.305 5.07633 120.279 5.12814C120.227 5.36129 120.149 5.62034 120.097 5.87939C120.071 5.9312 120.02 5.98301 119.968 5.9312C119.683 5.80168 119.398 5.64624 119.087 5.49081C119.009 5.49081 119.009 5.439 119.087 5.4131ZM117.429 6.19025C117.766 6.03482 118.129 5.9053 118.517 5.82758C118.595 5.82758 118.647 5.85349 118.621 5.9053C118.569 6.16435 118.491 6.3975 118.439 6.65655C118.439 6.70836 118.362 6.76017 118.31 6.70836C118.025 6.57883 117.74 6.4234 117.429 6.26797C117.377 6.26797 117.377 6.21616 117.429 6.19025ZM118.154 7.9C118.232 7.8741 118.284 7.9259 118.258 7.97772C118.206 8.23677 118.128 8.46991 118.077 8.72897C118.077 8.78078 117.999 8.83259 117.947 8.78078C117.662 8.65125 117.377 8.49582 117.066 8.34039C116.989 8.31448 116.989 8.26267 117.066 8.21086C117.403 8.08134 117.766 7.97772 118.154 7.9ZM117.455 9.32479C117.403 9.55794 117.325 9.81699 117.274 10.076C117.248 10.1278 117.196 10.1797 117.144 10.1279C116.859 9.99832 116.574 9.84289 116.263 9.68746C116.186 9.66155 116.186 9.60974 116.263 9.55793C116.6 9.4025 116.963 9.27298 117.351 9.19526C117.429 9.24707 117.481 9.27298 117.455 9.32479ZM115.952 7.17465C116.289 7.01922 116.652 6.8897 117.04 6.81198C117.118 6.78607 117.17 6.83789 117.144 6.8897C117.092 7.12284 117.015 7.3819 116.963 7.64095C116.937 7.69276 116.885 7.74457 116.833 7.69276C116.548 7.56323 116.263 7.4078 115.952 7.25237C115.901 7.27828 115.901 7.22646 115.952 7.17465ZM114.839 8.46991C115.175 8.31448 115.538 8.18496 115.927 8.10724C116.004 8.08134 116.056 8.13315 116.03 8.18496C115.978 8.44401 115.901 8.67716 115.849 8.93621C115.823 8.98802 115.771 9.03983 115.719 8.98802C115.434 8.85849 115.149 8.70306 114.839 8.54763C114.761 8.57354 114.761 8.52172 114.839 8.46991ZM114.398 9.97242C114.735 9.81699 115.098 9.68746 115.486 9.60975C115.564 9.58384 115.616 9.63565 115.59 9.68746C115.538 9.94651 115.46 10.1797 115.408 10.4387C115.383 10.4905 115.331 10.5423 115.279 10.4905C114.994 10.361 114.709 10.2056 114.398 10.0501C114.346 10.076 114.346 9.99832 114.398 9.97242ZM114.605 11.6044C114.528 11.5785 114.528 11.5267 114.605 11.4749C114.942 11.3195 115.305 11.19 115.693 11.1122C115.771 11.1122 115.823 11.1382 115.797 11.19C115.745 11.449 115.668 11.6822 115.616 11.9412C115.59 11.993 115.538 12.0448 115.486 11.993C115.201 11.8894 114.916 11.7599 114.605 11.6044ZM116.522 13.4178C116.496 13.4696 116.445 13.5214 116.393 13.4696C116.108 13.3401 115.823 13.1847 115.512 13.0292C115.434 13.0033 115.434 12.9515 115.512 12.8997C115.849 12.7443 116.212 12.6148 116.6 12.537C116.678 12.5111 116.73 12.5629 116.704 12.6148C116.652 12.8997 116.574 13.1588 116.522 13.4178ZM116.445 11.19C116.367 11.1641 116.367 11.1122 116.445 11.0604C116.781 10.905 117.144 10.7755 117.533 10.6978C117.61 10.6719 117.662 10.7237 117.636 10.7755C117.584 11.0086 117.507 11.2677 117.455 11.5267C117.455 11.5785 117.377 11.6304 117.325 11.5785C117.04 11.5008 116.756 11.3454 116.445 11.19ZM118.154 14.2468C118.129 14.2986 118.077 14.3504 118.025 14.2986C117.74 14.1691 117.455 14.0136 117.144 13.8582C117.066 13.8323 117.066 13.7805 117.144 13.7287C117.481 13.5732 117.844 13.4437 118.232 13.366C118.31 13.366 118.362 13.3919 118.336 13.4437C118.258 13.7546 118.206 13.9877 118.154 14.2468ZM118.491 12.6666C118.465 12.7184 118.413 12.7702 118.362 12.7184C118.077 12.5888 117.792 12.4334 117.481 12.278C117.403 12.2521 117.403 12.2003 117.481 12.1485C117.818 11.993 118.18 11.8635 118.569 11.7858C118.647 11.7599 118.698 11.8117 118.673 11.8635C118.621 12.1485 118.569 12.4075 118.491 12.6666ZM120.123 13.4437C120.071 13.7028 119.994 13.9359 119.942 14.195C119.916 14.2468 119.864 14.2986 119.812 14.2468C119.527 14.1173 119.242 13.9618 118.932 13.8064C118.854 13.7805 118.854 13.7287 118.932 13.6769C119.268 13.5214 119.631 13.3919 120.02 13.3142C120.071 13.3401 120.123 13.3919 120.123 13.4437ZM120.175 12.5888C119.89 12.4593 119.605 12.3039 119.294 12.1485C119.217 12.1226 119.217 12.0707 119.294 12.0189C119.631 11.8635 119.994 11.734 120.382 11.6563C120.46 11.6563 120.512 11.6822 120.486 11.734C120.434 11.993 120.356 12.2262 120.305 12.4852C120.305 12.5888 120.253 12.6407 120.175 12.5888ZM121.574 14.6354C121.522 14.8685 121.444 15.1276 121.393 15.3866C121.367 15.4384 121.315 15.4902 121.263 15.4384C120.978 15.3089 120.693 15.1535 120.382 14.998C120.305 14.9721 120.305 14.9203 120.382 14.8685C120.719 14.7131 121.082 14.5836 121.47 14.5058C121.548 14.5317 121.6 14.5836 121.574 14.6354ZM121.937 13.0033C121.885 13.2365 121.807 13.4955 121.755 13.7546C121.729 13.8064 121.678 13.8582 121.626 13.8064C121.341 13.6769 121.056 13.5214 120.745 13.366C120.667 13.3401 120.667 13.2883 120.745 13.2365C121.082 13.081 121.444 12.9515 121.833 12.8738C121.911 12.8997 121.962 12.9256 121.937 13.0033ZM122.17 12.0189C122.144 12.0707 122.092 12.1226 122.04 12.0707C121.755 11.9412 121.47 11.7858 121.159 11.6304C121.082 11.6044 121.082 11.5526 121.159 11.5008C121.496 11.3454 121.859 11.2159 122.247 11.1382C122.325 11.1122 122.377 11.1641 122.351 11.2159C122.273 11.5267 122.222 11.7599 122.17 12.0189ZM123.284 14.8426C123.284 14.8944 123.206 14.9462 123.154 14.8944C122.869 14.7649 122.584 14.6095 122.273 14.454C122.196 14.4281 122.196 14.3763 122.273 14.3245C122.61 14.1691 122.973 14.0395 123.361 13.9618C123.439 13.9618 123.491 13.9877 123.465 14.0395C123.387 14.3245 123.335 14.5836 123.284 14.8426ZM123.62 13.2624C123.62 13.3142 123.543 13.366 123.491 13.3142C123.206 13.1847 122.921 13.0292 122.61 12.8738C122.532 12.8479 122.532 12.7961 122.61 12.7443C122.947 12.5888 123.31 12.4593 123.698 12.3816C123.776 12.3816 123.828 12.4075 123.802 12.4593C123.75 12.7443 123.672 13.0033 123.62 13.2624ZM123.879 11.6563C123.595 11.5267 123.31 11.3713 122.999 11.2159C122.921 11.19 122.921 11.1382 122.999 11.0863C123.335 10.9309 123.698 10.8014 124.087 10.7237C124.164 10.7237 124.216 10.7496 124.19 10.8014C124.139 11.0345 124.061 11.2936 124.009 11.5526C123.983 11.6563 123.931 11.6822 123.879 11.6563ZM125.356 13.6769C125.304 13.91 125.227 14.1691 125.175 14.4281C125.149 14.4799 125.097 14.5317 125.045 14.4799C124.76 14.3504 124.475 14.195 124.164 14.0395C124.087 14.0136 124.087 13.9618 124.164 13.91C124.501 13.7546 124.864 13.6251 125.252 13.5473C125.304 13.5992 125.356 13.6251 125.356 13.6769ZM125.693 12.0966C125.641 12.3298 125.563 12.5888 125.511 12.8479C125.486 12.8997 125.434 12.9515 125.382 12.8997C125.097 12.7702 124.812 12.6148 124.501 12.4593C124.423 12.4334 124.423 12.3816 124.501 12.3298C124.838 12.1744 125.201 12.0448 125.589 11.9671C125.667 11.993 125.719 12.0448 125.693 12.0966ZM125.745 11.3454C125.46 11.2159 125.175 11.0604 124.864 10.905C124.786 10.8791 124.786 10.8273 124.864 10.7755C125.201 10.62 125.563 10.4905 125.952 10.4128C126.03 10.3869 126.081 10.4387 126.055 10.4905C126.004 10.7237 125.926 10.9827 125.874 11.2418C125.874 11.3454 125.796 11.3713 125.745 11.3454ZM127.195 13.4955C127.144 13.7546 127.066 13.9877 127.014 14.2468C127.014 14.2986 126.936 14.3504 126.884 14.2986C126.6 14.1691 126.315 14.0136 126.004 13.8582C125.926 13.8323 125.926 13.7805 126.004 13.7287C126.34 13.5732 126.703 13.4437 127.092 13.366C127.144 13.3919 127.195 13.4437 127.195 13.4955ZM127.532 11.9153C127.48 12.1744 127.403 12.4075 127.351 12.6666C127.325 12.7184 127.273 12.7702 127.221 12.7184C126.936 12.5888 126.651 12.4334 126.34 12.278C126.263 12.2521 126.263 12.2003 126.34 12.1485C126.677 11.993 127.04 11.8635 127.428 11.7858C127.506 11.8117 127.558 11.8635 127.532 11.9153ZM127.713 11.1382C127.713 11.19 127.636 11.2418 127.584 11.19C127.299 11.0604 127.014 10.905 126.703 10.7496C126.625 10.7237 126.625 10.6719 126.703 10.6201C127.04 10.4646 127.403 10.3351 127.791 10.2574C127.869 10.2574 127.921 10.2833 127.895 10.3351C127.817 10.62 127.765 10.8791 127.713 11.1382ZM129.009 13.5732C128.957 13.8064 128.879 14.0654 128.827 14.3245C128.801 14.3763 128.75 14.4281 128.698 14.3763C128.413 14.2468 128.128 14.0914 127.817 13.9359C127.739 13.91 127.739 13.8582 127.817 13.8064C128.154 13.651 128.516 13.5214 128.905 13.4437C128.983 13.4696 129.035 13.4955 129.009 13.5732ZM129.371 11.9671C129.32 12.2003 129.242 12.4593 129.19 12.7184C129.164 12.7702 129.112 12.822 129.061 12.7702C128.776 12.6407 128.491 12.4852 128.18 12.3298C128.102 12.3039 128.102 12.2521 128.18 12.2003C128.516 12.0448 128.879 11.9153 129.268 11.8376C129.32 11.8635 129.371 11.9153 129.371 11.9671ZM129.708 10.4128C129.656 10.646 129.579 10.905 129.527 11.1641C129.501 11.2159 129.449 11.2677 129.397 11.2159C129.112 11.0863 128.827 10.9309 128.516 10.7755C128.439 10.7496 128.439 10.6978 128.516 10.646C128.853 10.4905 129.216 10.361 129.605 10.2833C129.682 10.3092 129.734 10.361 129.708 10.4128ZM130.952 13.0551C130.952 13.107 130.874 13.1329 130.822 13.107C130.537 12.9774 130.252 12.822 129.941 12.6666C129.864 12.6407 129.864 12.5888 129.941 12.537C130.278 12.3816 130.641 12.2521 131.029 12.1744C131.107 12.1744 131.159 12.2003 131.133 12.2521C131.081 12.5629 131.003 12.822 130.952 13.0551ZM131.496 10.6978C131.444 10.9568 131.366 11.19 131.314 11.449C131.288 11.5008 131.237 11.5526 131.185 11.5008C130.9 11.3713 130.615 11.2159 130.304 11.0604C130.226 11.0345 130.226 10.9827 130.304 10.9309C130.641 10.7755 131.003 10.646 131.392 10.5682C131.444 10.5941 131.496 10.646 131.496 10.6978ZM133.179 11.2936C133.128 11.5526 133.05 11.7858 132.998 12.0448C132.972 12.0966 132.92 12.1485 132.869 12.0966C132.584 11.9671 132.299 11.8117 131.988 11.6563C131.91 11.6304 131.91 11.5785 131.988 11.5267C132.325 11.3713 132.687 11.2418 133.076 11.1641C133.128 11.19 133.179 11.2418 133.179 11.2936Z" fill="white"/>
</svg>
